#define _width 5
#define _height 8
static char _bits[] = {
 0x00,0x00,0x02,0x01,0x03,0x00,0x00,0x00 };
