#define _width 5
#define _height 8
static char _bits[] = {
 0x00,0x1f,0x00,0x00,0x00,0x1f,0x00,0x00 };
