#define _width 5
#define _height 8
static char _bits[] = {
 0x00,0x00,0x08,0x18,0x18,0x00,0x00,0x00 };
